<?xml version="1.0" encoding="UTF-8"?>
<svg id="Layer_2" data-name="Layer 2" xmlns="http://www.w3.org/2000/svg" viewBox="0 0 280.71 288.74">
  <defs>
    <style>
      .cls-1 {
        font-family: ClashDisplay-Medium, 'Clash Display';
        font-size: 14px;
        font-weight: 500;
        letter-spacing: -.02em;
      }

      .cls-1, .cls-2 {
        fill: #fff;
      }
    </style>
  </defs>
  <path class="cls-2" d="M266.2,27.35l-60.58,13.42c-16.91,3.75-28.94,18.75-28.94,36.06v39.51c0,.81-.56,1.52-1.36,1.69l-31.4,6.96V17.77h-7.13v162.88c0,9.62-6.69,17.95-16.08,20.03L0,227.44v61.3l103.57-22.96c23.57-5.23,40.35-26.13,40.35-50.28v-26.95c0-1.31.91-2.45,2.2-2.74l106.8-23.68c16.23-3.6,27.79-18,27.79-34.63V39c0-7.63-7.06-13.3-14.51-11.65ZM184.42,116.01c-.31.07-.61-.17-.61-.49v-2.6c0-3.52,2.44-6.56,5.88-7.32l83.27-18.47c.31-.07.61.17.61.49v2.6c0,3.52-2.44,6.56-5.88,7.32l-83.28,18.46Z"/>
  <path class="cls-2" d="M96.32,122.28c-1.51.9-2.26-.05-3.28-.03-.25,0-.23.6-.48.73-4.28,2.14-4.18-1.46-3.76-4.75h1.1c.08,1.42-.54,4.69,1.57,3.96,2.03-.71-.17-4.64,2.45-3.77-.06.96-.25,3,1.22,3.03,2.24.06.65-6.31,2.43-5.04,1.02.72.07,5.08-1.25,5.87Z"/>
  <path class="cls-2" d="M102.33,120.43v25.23l-7.68,1.46v-21.57l-2.94.57-.14,21.76-7.52,1.44v-16.46c-7.81,1.98-16.2,1.13-17.14,11.2-.59,6.25.48,11.74,8.14,10.34l30.57-6.55v-28.15c-.39.04-3.29.56-3.29.73ZM80.76,150.41c-2.76-.03-8.62,2.95-10.06-.36-1.03-2.39-.93-9.1,1.09-10.98,1.72-1.6,6.64-2.12,8.97-2.55v13.89Z"/>
  <path class="cls-2" d="M114.77,117.87v28.16c0,.16-2.95.31-3.3.36v-27.61c0-.51,2.7-.99,3.3-.91Z"/>
  <path class="cls-2" d="M104.02,85.36c-1.65.18-9.04,2.66-10.24,3.58-.55.42-.1,1.65-.22,2.23,4.83-.93,9.37-3.55,14.45-2.93,5.71.69,5.66,9.28,5.13,13.56l-6.05,1.44c.5-4.78-.96-9.39-6.67-8.68-3.16.39-6.97,3.57-7.51,6.76-.2,1.21.25,4.51-.44,5.04-.98.74-7.19,1.16-8.79,2v-16.82c-5.26,1.67-13.51,1.25-16.05,7.17-1.29,3.01-1.64,10.33.5,12.95,3.03,3.71,8.51.33,12.26.56.49,3.63-1.74,5.72-4.95,6.73-1.54.48-6.4.72-6.89,1.07-.27.2-.69,2.51-.59,2.6,5.19.26,12.92-1.23,15.06-6.69.67-1.7.46-3.21,1.01-4.84l32.22-6.96c.1-10.33,1.59-20.31-12.23-18.77ZM80.39,109.09c-5.47.61-10.26,4.1-10.62-3.82-.39-8.65,3.28-8.67,10.62-10.07v13.89ZM103.75,103.92l-8,1.52c-1.78-8.41,9.72-12.4,8-1.52Z"/>
  <path class="cls-2" d="M238.67.91l-8.12,12.09c-.64.95-1.93,1.19-2.87.54l-11.92-8.33c-.93-.65-2.2-.42-2.85.51l-10.03,14.35c-.66.94-.41,2.23.54,2.87l14.36,9.64c.92.62,2.17.39,2.81-.52l8.36-11.79c.65-.92,1.91-1.14,2.84-.5l11.74,8.14c.92.64,2.19.42,2.84-.5l10.03-14.16c.66-.93.43-2.21-.5-2.86L241.54.37c-.94-.66-2.23-.41-2.87.54Z"/>
  <text class="cls-1" transform="translate(157.55 209.25) rotate(-12.5) scale(1.02 .98) skewX(-11.93)"><tspan x="0" y="0">PMSA ARTS FEST</tspan><tspan x="0" y="14">2025-26</tspan></text>
</svg>